<svg xmlns="http://www.w3.org/2000/svg" viewBox="0 0 1024 1024" width="1024" height="1024"><defs><linearGradient id="u1" x1="0" y1="0.0" x2="0" y2="1024.0" gradientUnits="userSpaceOnUse"><stop offset="0" stop-color="#12171F"/><stop offset="1" stop-color="#090C11"/></linearGradient><linearGradient id="u2" x1="290.7" y1="0" x2="697.6" y2="0" gradientUnits="userSpaceOnUse"><stop offset="0" stop-color="#FF3B47"/><stop offset="0.55" stop-color="#8B5CF6"/><stop offset="1" stop-color="#38BDF8"/></linearGradient></defs><rect x="0.0" y="0.0" width="1024.0" height="1024.0" rx="229.4" fill="url(#u1)" stroke="#2A3340" stroke-width="4.10"/><circle cx="209.9" cy="300.0" r="30.0" fill="#FF3B47"/><circle cx="300.0" cy="300.0" r="30.0" fill="#8B5CF6"/><circle cx="390.1" cy="300.0" r="30.0" fill="#38BDF8"/><line x1="209.9" y1="430.1" x2="814.1" y2="430.1" stroke="#2A3340" stroke-width="2.97"/><path d="M183 620 460 373Q477 358 477 335Q477 312 460 298L185 58H54L371 336L53 620Z" transform="translate(174.08,752.64) scale(0.22733,-0.22733)" fill="#4A5568"/><path d="M880 0H780V200H221V300H780V600H421Q353 600 296.0 566.5Q239 533 205.5 476.0Q172 419 172 350V0H72V350Q72 422 99.0 485.5Q126 549 174.0 597.5Q222 646 285.5 673.0Q349 700 421 700H880Z" transform="translate(290.70,752.64) scale(0.22733,-0.22733)" fill="#FF3B47"/><path d="M809 600H184V0H84V700H809ZM723 300H234V400H723Z" transform="translate(509.84,752.64) scale(0.22733,-0.22733)" fill="#38BDF8"/><path d="M610 -188H60V-88H610Z" transform="translate(697.61,752.64) scale(0.22733,-0.22733)" fill="#38BDF8"/></svg>