<svg xmlns="http://www.w3.org/2000/svg" viewBox="282 70 706 92" width="706" height="92">
  <!-- ">attack_Feed" wordmark extracted from attackfeed-lockup-color-dark.svg (Bruno Ace, outlined) -->
  <path d="M183 620 460 373Q477 358 477 335Q477 312 460 298L185 58H54L371 336L53 620Z" transform="translate(284.00,140.72) scale(0.08600,-0.08600)" fill="#4A5568"/>
  <path d="M698 0H198Q150 0 110.0 23.5Q70 47 46.5 86.5Q23 126 23 175Q23 224 46.5 263.5Q70 303 110.0 326.5Q150 350 198 350H548V250H198Q167 250 145.0 228.0Q123 206 123 175Q123 144 145.0 122.0Q167 100 198 100H598V375Q598 406 576.0 428.0Q554 450 523 450H123V550H523Q572 550 611.5 526.5Q651 503 674.5 463.5Q698 424 698 375Z" transform="translate(328.12,140.72) scale(0.08600,-0.08600)" fill="#E8EDF2"/>
  <path d="M265 0H165V450H15V550H165V750H265V550H615V450H265Z" transform="translate(393.99,140.72) scale(0.08600,-0.08600)" fill="#E8EDF2"/>
  <path d="M265 0H165V450H15V550H165V750H265V550H615V450H265Z" transform="translate(447.49,140.72) scale(0.08600,-0.08600)" fill="#E8EDF2"/>
  <path d="M698 0H198Q150 0 110.0 23.5Q70 47 46.5 86.5Q23 126 23 175Q23 224 46.5 263.5Q70 303 110.0 326.5Q150 350 198 350H548V250H198Q167 250 145.0 228.0Q123 206 123 175Q123 144 145.0 122.0Q167 100 198 100H598V375Q598 406 576.0 428.0Q554 450 523 450H123V550H523Q572 550 611.5 526.5Q651 503 674.5 463.5Q698 424 698 375Z" transform="translate(500.98,140.72) scale(0.08600,-0.08600)" fill="#E8EDF2"/>
  <path d="M637 0H310Q253 0 203.5 21.5Q154 43 116.5 81.0Q79 119 58.0 168.5Q37 218 37 275Q37 332 58.0 381.5Q79 431 116.5 469.0Q154 507 203.5 528.5Q253 550 310 550H637V450H310Q262 450 223.0 426.0Q184 402 160.5 362.5Q137 323 137 275Q137 227 160.5 187.5Q184 148 223.0 124.0Q262 100 310 100H637Z" transform="translate(566.85,140.72) scale(0.08600,-0.08600)" fill="#E8EDF2"/>
  <path d="M723 0H580L288 235L172 140V0H72V750H172V246L536 550H672L361 295Z" transform="translate(624.90,140.72) scale(0.08600,-0.08600)" fill="#E8EDF2"/>
  <path d="M610 -188H60V-88H610Z" transform="translate(686.05,140.72) scale(0.08600,-0.08600)" fill="#FF3B47"/>
  <path d="M622 650H345Q297 650 258.0 626.0Q219 602 195.5 562.5Q172 523 172 475V0H72V500Q72 553 94.0 598.5Q116 644 154.5 677.5Q193 711 242.0 730.5Q291 750 345 750H622ZM622 400H222V500H622Z" transform="translate(743.67,140.72) scale(0.08600,-0.08600)" fill="#38BDF8"/>
  <path d="M712 375Q712 327 688.5 287.0Q665 247 625.5 223.5Q586 200 537 200H154Q175 156 216.5 128.0Q258 100 310 100H637V0H310Q253 0 203.5 21.5Q154 43 116.5 81.0Q79 119 58.0 168.5Q37 218 37 275Q37 332 58.0 381.5Q79 431 116.5 469.0Q154 507 203.5 528.5Q253 550 310 550H537Q586 550 625.5 526.5Q665 503 688.5 463.5Q712 424 712 375ZM537 300Q568 300 590.0 322.0Q612 344 612 375Q612 406 590.0 428.0Q568 450 537 450H310Q266 450 229.5 430.0Q193 410 169.0 376.0Q145 342 139 300Z" transform="translate(798.54,140.72) scale(0.08600,-0.08600)" fill="#38BDF8"/>
  <path d="M712 375Q712 327 688.5 287.0Q665 247 625.5 223.5Q586 200 537 200H154Q175 156 216.5 128.0Q258 100 310 100H637V0H310Q253 0 203.5 21.5Q154 43 116.5 81.0Q79 119 58.0 168.5Q37 218 37 275Q37 332 58.0 381.5Q79 431 116.5 469.0Q154 507 203.5 528.5Q253 550 310 550H537Q586 550 625.5 526.5Q665 503 688.5 463.5Q712 424 712 375ZM537 300Q568 300 590.0 322.0Q612 344 612 375Q612 406 590.0 428.0Q568 450 537 450H310Q266 450 229.5 430.0Q193 410 169.0 376.0Q145 342 139 300Z" transform="translate(862.01,140.72) scale(0.08600,-0.08600)" fill="#38BDF8"/>
  <path d="M685 0H585V450H310Q262 450 223.0 426.5Q184 403 160.5 363.0Q137 323 137 275Q137 227 160.5 187.5Q184 148 223.0 124.5Q262 101 310 100H535V0H310Q253 0 203.5 21.5Q154 43 116.5 81.0Q79 119 58.0 168.5Q37 218 37 275Q37 332 58.0 381.5Q79 431 116.5 469.0Q154 507 203.5 528.5Q253 550 310 550H585V750H685Z" transform="translate(925.47,140.72) scale(0.08600,-0.08600)" fill="#38BDF8"/>
</svg>
