<svg xmlns="http://www.w3.org/2000/svg" viewBox="0 0 1024 1024" width="1024" height="1024"><defs><linearGradient id="u3" x1="0" y1="0" x2="0" y2="1024" gradientUnits="userSpaceOnUse"><stop offset="0" stop-color="#12171F"/><stop offset="1" stop-color="#090C11"/></linearGradient><linearGradient id="u4" x1="194.6" y1="0" x2="829.4" y2="0" gradientUnits="userSpaceOnUse"><stop offset="0" stop-color="#FF3B47"/><stop offset="0.55" stop-color="#8B5CF6"/><stop offset="1" stop-color="#38BDF8"/></linearGradient></defs><rect x="0" y="0" width="1024" height="1024" rx="229.4" fill="url(#u3)"/><path d="M880 0H780V200H221V300H780V600H421Q353 600 296.0 566.5Q239 533 205.5 476.0Q172 419 172 350V0H72V350Q72 422 99.0 485.5Q126 549 174.0 597.5Q222 646 285.5 673.0Q349 700 421 700H880Z" transform="translate(194.56,621.95) scale(0.35468,-0.35468)" fill="url(#u4)"/><path d="M809 600H184V0H84V700H809ZM723 300H234V400H723Z" transform="translate(536.47,621.95) scale(0.35468,-0.35468)" fill="url(#u4)"/></svg>